HIERARCHY
ROOT Hips
{
  OFFSET 0 98.0000 0
  CHANNELS 6 Xposition Yposition Zposition Zrotation Yrotation Xrotation
  JOINT LowerBack
  {
    OFFSET 0 0 0
    CHANNELS 3 Zrotation Yrotation Xrotation
    JOINT Spine
    {
      OFFSET 0 8.0000 0
      CHANNELS 3 Zrotation Yrotation Xrotation
      JOINT Spine1
      {
        OFFSET 0 12.0000 0
        CHANNELS 3 Zrotation Yrotation Xrotation
        JOINT Neck
        {
          OFFSET 0 12.0000 0
          CHANNELS 3 Zrotation Yrotation Xrotation
          JOINT Neck1
          {
            OFFSET 0 16.0000 0
            CHANNELS 3 Zrotation Yrotation Xrotation
            JOINT Head
            {
              OFFSET 0 9.0000 1.0000
              CHANNELS 3 Zrotation Yrotation Xrotation
              End Site
              {
                OFFSET 0 18.0000 0
              }
            }
          }
          JOINT LeftShoulder
          {
            OFFSET 3.0000 12.0000 0
            CHANNELS 3 Zrotation Yrotation Xrotation
            JOINT LeftArm
            {
              OFFSET 13.0000 0 0
              CHANNELS 3 Zrotation Yrotation Xrotation
              JOINT LeftForeArm
              {
                OFFSET 27.0000 0 0
                CHANNELS 3 Zrotation Yrotation Xrotation
                JOINT LeftHand
                {
                  OFFSET 25.0000 0 0
                  CHANNELS 3 Zrotation Yrotation Xrotation
                  End Site
                  {
                    OFFSET 8.0000 0 0
                  }
                }
              }
            }
          }
          JOINT RightShoulder
          {
            OFFSET -3.0000 12.0000 0
            CHANNELS 3 Zrotation Yrotation Xrotation
            JOINT RightArm
            {
              OFFSET -13.0000 0 0
              CHANNELS 3 Zrotation Yrotation Xrotation
              JOINT RightForeArm
              {
                OFFSET -27.0000 0 0
                CHANNELS 3 Zrotation Yrotation Xrotation
                JOINT RightHand
                {
                  OFFSET -25.0000 0 0
                  CHANNELS 3 Zrotation Yrotation Xrotation
                  End Site
                  {
                    OFFSET -8.0000 0 0
                  }
                }
              }
            }
          }
        }
      }
    }
  }
  JOINT LHipJoint
  {
    OFFSET 0 0 0
    CHANNELS 3 Zrotation Yrotation Xrotation
    JOINT LeftUpLeg
    {
      OFFSET 9.0000 -6.0000 0
      CHANNELS 3 Zrotation Yrotation Xrotation
      JOINT LeftLeg
      {
        OFFSET 0 -43.0000 0
        CHANNELS 3 Zrotation Yrotation Xrotation
        JOINT LeftFoot
        {
          OFFSET 0 -41.0000 0
          CHANNELS 3 Zrotation Yrotation Xrotation
          JOINT LeftToeBase
          {
            OFFSET 0 -7.0000 12.0000
            CHANNELS 3 Zrotation Yrotation Xrotation
            End Site
            {
              OFFSET 0 0 5.0000
            }
          }
        }
      }
    }
  }
  JOINT RHipJoint
  {
    OFFSET 0 0 0
    CHANNELS 3 Zrotation Yrotation Xrotation
    JOINT RightUpLeg
    {
      OFFSET -9.0000 -6.0000 0
      CHANNELS 3 Zrotation Yrotation Xrotation
      JOINT RightLeg
      {
        OFFSET 0 -43.0000 0
        CHANNELS 3 Zrotation Yrotation Xrotation
        JOINT RightFoot
        {
          OFFSET 0 -41.0000 0
          CHANNELS 3 Zrotation Yrotation Xrotation
          JOINT RightToeBase
          {
            OFFSET 0 -7.0000 12.0000
            CHANNELS 3 Zrotation Yrotation Xrotation
            End Site
            {
              OFFSET 0 0 5.0000
            }
          }
        }
      }
    }
  }
}
MOTION
Frames: 30
Frame Time: 0.0083333
0 98.0000 0 0 0 0 0 0 0 0 0 0 0 0 8.0000 0 0 0 0 0 5.0000 0 0 10.0000 0 0 0 -60.0000 0 0 0 -70.0000 0 15.0000 0 0 0 0 0 70.0000 0 0 0 75.0000 0 0 0 -15.0000 0 0 0 0 0 -20.0000 0 0 50.0000 0 0 10.0000 0 0 0 0 0 0 0 0 -20.0000 0 0 50.0000 0 0 0 0 0 0
0 98.1570 0.4167 0 0.2618 0 0 0 0 0 0 0 0 0 8.1571 0 -0.1571 0 0 0 4.9983 0 0.7853 9.9966 0 0 0 -60.0016 -0.3272 0.5668 0 -70.7853 0 14.9949 0 0.5235 0 0 0 70.0008 0.1791 0.4920 0 74.9949 0 0 0 -14.9949 0 0 0 0 0 -20.6544 0 0 50.6544 0 0 9.9966 0 0 0 0 0 0 0 0 -19.3456 0 0 49.3456 0 0 0 0 0 0
0 98.3136 0.8333 0 0.5234 0 0 0 0 0 0 0 0 0 8.3140 0 -0.3140 0 0 0 4.9931 0 1.5701 9.9863 0 0 0 -60.0065 -0.6542 1.1332 0 -71.5701 0 14.9794 0 1.0467 0 0 0 70.0031 0.3580 0.9836 0 74.9794 0 0 0 -14.9794 0 0 0 0 0 -21.3084 0 0 51.3084 0 0 9.9863 0 0 0 0 0 0 0 0 -18.6916 0 0 48.6916 0 0 0 0 0 0
0 98.4693 1.2500 0 0.7846 0 0 0 0 0 0 0 0 0 8.4708 0 -0.4708 0 0 0 4.9846 0 2.3538 9.9692 0 0 0 -60.0145 -0.9806 1.6989 0 -72.3538 0 14.9538 0 1.5692 0 0 0 70.0069 0.5366 1.4746 0 74.9538 0 0 0 -14.9538 0 0 0 0 0 -21.9615 0 0 51.9615 0 0 9.9692 0 0 0 0 0 0 0 0 -18.0385 0 0 48.0385 0 0 0 0 0 0
0 98.6237 1.6667 0 1.0453 0 0 0 0 0 0 0 0 0 8.6272 0 -0.6272 0 0 0 4.9726 0 3.1359 9.9452 0 0 0 -60.0258 -1.3063 2.2635 0 -73.1359 0 14.9178 0 2.0906 0 0 0 70.0123 0.7149 1.9646 0 74.9178 0 0 0 -14.9178 0 0 0 0 0 -22.6132 0 0 52.6132 0 0 9.9452 0 0 0 0 0 0 0 0 -17.3868 0 0 47.3868 0 0 0 0 0 0
0 98.7765 2.0833 0 1.3053 0 0 0 0 0 0 0 0 0 8.7832 0 -0.7832 0 0 0 4.9572 0 3.9158 9.9144 0 0 0 -60.0402 -1.6309 2.8267 0 -73.9158 0 14.8717 0 2.6105 0 0 0 70.0191 0.8926 2.4533 0 74.8717 0 0 0 -14.8717 0 0 0 0 0 -23.2632 0 0 53.2632 0 0 9.9144 0 0 0 0 0 0 0 0 -16.7368 0 0 46.7368 0 0 0 0 0 0
0 98.9271 2.5000 0 1.5643 0 0 0 0 0 0 0 0 0 8.9386 0 -0.9386 0 0 0 4.9384 0 4.6930 9.8769 0 0 0 -60.0578 -1.9543 3.3882 0 -74.6930 0 14.8153 0 3.1287 0 0 0 70.0275 1.0696 2.9403 0 74.8153 0 0 0 -14.8153 0 0 0 0 0 -23.9109 0 0 53.9109 0 0 9.8769 0 0 0 0 0 0 0 0 -16.0891 0 0 46.0891 0 0 0 0 0 0
0 99.0751 2.9167 0 1.8224 0 0 0 0 0 0 0 0 0 9.0934 0 -1.0934 0 0 0 4.9163 0 5.4671 9.8325 0 0 0 -60.0785 -2.2761 3.9476 0 -75.4671 0 14.7488 0 3.6447 0 0 0 70.0373 1.2458 3.4254 0 74.7488 0 0 0 -14.7488 0 0 0 0 0 -24.5559 0 0 54.5559 0 0 9.8325 0 0 0 0 0 0 0 0 -15.4441 0 0 45.4441 0 0 0 0 0 0
0 99.2202 3.3333 0 2.0791 0 0 0 0 0 0 0 0 0 9.2475 0 -1.2475 0 0 0 4.8907 0 6.2374 9.7815 0 0 0 -60.1021 -2.5962 4.5045 0 -76.2374 0 14.6722 0 4.1582 0 0 0 70.0485 1.4211 3.9083 0 74.6722 0 0 0 -14.6722 0 0 0 0 0 -25.1978 0 0 55.1978 0 0 9.7815 0 0 0 0 0 0 0 0 -14.8022 0 0 44.8022 0 0 0 0 0 0
0 99.3620 3.7500 0 2.3345 0 0 0 0 0 0 0 0 0 9.4007 0 -1.4007 0 0 0 4.8618 0 7.0034 9.7237 0 0 0 -60.1288 -2.9143 5.0586 0 -77.0034 0 14.5855 0 4.6689 0 0 0 70.0611 1.5953 4.3885 0 74.5855 0 0 0 -14.5855 0 0 0 0 0 -25.8361 0 0 55.8361 0 0 9.7237 0 0 0 0 0 0 0 0 -14.1639 0 0 44.1639 0 0 0 0 0 0
0 99.5000 4.1667 0 2.5882 0 0 0 0 0 0 0 0 0 9.5529 0 -1.5529 0 0 0 4.8296 0 7.7646 9.6593 0 0 0 -60.1583 -3.2301 5.6095 0 -77.7646 0 14.4889 0 5.1764 0 0 0 70.0751 1.7683 4.8658 0 74.4889 0 0 0 -14.4889 0 0 0 0 0 -26.4705 0 0 56.4705 0 0 9.6593 0 0 0 0 0 0 0 0 -13.5295 0 0 43.5295 0 0 0 0 0 0
0 99.6339 4.5833 0 2.8402 0 0 0 0 0 0 0 0 0 9.7041 0 -1.7041 0 0 0 4.7941 0 8.5205 9.5882 0 0 0 -60.1906 -3.5434 6.1570 0 -78.5205 0 14.3823 0 5.6803 0 0 0 70.0905 1.9400 5.3398 0 74.3823 0 0 0 -14.3823 0 0 0 0 0 -27.1004 0 0 57.1004 0 0 9.5882 0 0 0 0 0 0 0 0 -12.8996 0 0 42.8996 0 0 0 0 0 0
0 99.7634 5.0000 0 3.0902 0 0 0 0 0 0 0 0 0 9.8541 0 -1.8541 0 0 0 4.7553 0 9.2705 9.5106 0 0 0 -60.2257 -3.8539 6.7005 0 -79.2705 0 14.2658 0 6.1803 0 0 0 70.1071 2.1102 5.8103 0 74.2658 0 0 0 -14.2658 0 0 0 0 0 -27.7254 0 0 57.7254 0 0 9.5106 0 0 0 0 0 0 0 0 -12.2746 0 0 42.2746 0 0 0 0 0 0
0 99.8880 5.4167 0 3.3381 0 0 0 0 0 0 0 0 0 10.0028 0 -2.0028 0 0 0 4.7132 0 10.0142 9.4264 0 0 0 -60.2634 -4.1615 7.2399 0 -80.0142 0 14.1396 0 6.6761 0 0 0 70.1250 2.2788 6.2768 0 74.1396 0 0 0 -14.1396 0 0 0 0 0 -28.3452 0 0 58.3452 0 0 9.4264 0 0 0 0 0 0 0 0 -11.6548 0 0 41.6548 0 0 0 0 0 0
0 100.0074 5.8333 0 3.5837 0 0 0 0 0 0 0 0 0 10.1502 0 -2.1502 0 0 0 4.6679 0 10.7510 9.3358 0 0 0 -60.3036 -4.4659 7.7747 0 -80.7510 0 14.0037 0 7.1674 0 0 0 70.1440 2.4457 6.7392 0 74.0037 0 0 0 -14.0037 0 0 0 0 0 -28.9592 0 0 58.9592 0 0 9.3358 0 0 0 0 0 0 0 0 -11.0408 0 0 41.0408 0 0 0 0 0 0
0 100.1213 6.2500 0 3.8268 0 0 0 0 0 0 0 0 0 10.2961 0 -2.2961 0 0 0 4.6194 0 11.4805 9.2388 0 0 0 -60.3463 -4.7668 8.3046 0 -81.4805 0 13.8582 0 7.6537 0 0 0 70.1642 2.6108 7.1971 0 73.8582 0 0 0 -13.8582 0 0 0 0 0 -29.5671 0 0 59.5671 0 0 9.2388 0 0 0 0 0 0 0 0 -10.4329 0 0 40.4329 0 0 0 0 0 0
0 100.2294 6.6667 0 4.0674 0 0 0 0 0 0 0 0 0 10.4404 0 -2.4404 0 0 0 4.5677 0 12.2021 9.1355 0 0 0 -60.3912 -5.0642 8.8292 0 -82.2021 0 13.7032 0 8.1347 0 0 0 70.1855 2.7740 7.6501 0 73.7032 0 0 0 -13.7032 0 0 0 0 0 -30.1684 0 0 60.1684 0 0 9.1355 0 0 0 0 0 0 0 0 -9.8316 0 0 39.8316 0 0 0 0 0 0
0 100.3314 7.0833 0 4.3051 0 0 0 0 0 0 0 0 0 10.5831 0 -2.5831 0 0 0 4.5129 0 12.9153 9.0259 0 0 0 -60.4384 -5.3576 9.3482 0 -82.9153 0 13.5388 0 8.6102 0 0 0 70.2078 2.9351 8.0981 0 73.5388 0 0 0 -13.5388 0 0 0 0 0 -30.7628 0 0 60.7628 0 0 9.0259 0 0 0 0 0 0 0 0 -9.2372 0 0 39.2372 0 0 0 0 0 0
0 100.4271 7.5000 0 4.5399 0 0 0 0 0 0 0 0 0 10.7239 0 -2.7239 0 0 0 4.4550 0 13.6197 8.9101 0 0 0 -60.4875 -5.6470 9.8613 0 -83.6197 0 13.3651 0 9.0798 0 0 0 70.2311 3.0940 8.5406 0 73.3651 0 0 0 -13.3651 0 0 0 0 0 -31.3498 0 0 61.3498 0 0 8.9101 0 0 0 0 0 0 0 0 -8.6502 0 0 38.6502 0 0 0 0 0 0
0 100.5160 7.9167 0 4.7716 0 0 0 0 0 0 0 0 0 10.8630 0 -2.8630 0 0 0 4.3941 0 14.3148 8.7882 0 0 0 -60.5387 -5.9321 10.3680 0 -84.3148 0 13.1823 0 9.5432 0 0 0 70.2553 3.2506 8.9773 0 73.1823 0 0 0 -13.1823 0 0 0 0 0 -31.9290 0 0 61.9290 0 0 8.7882 0 0 0 0 0 0 0 0 -8.0710 0 0 38.0710 0 0 0 0 0 0
0 100.5981 8.3333 0 5.0000 0 0 0 0 0 0 0 0 0 11.0000 0 -3.0000 0 0 0 4.3301 0 15.0000 8.6603 0 0 0 -60.5916 -6.2127 10.8682 0 -85.0000 0 12.9904 0 10.0000 0 0 0 70.2803 3.4049 9.4080 0 72.9904 0 0 0 -12.9904 0 0 0 0 0 -32.5000 0 0 62.5000 0 0 8.6603 0 0 0 0 0 0 0 0 -7.5000 0 0 37.5000 0 0 0 0 0 0
0 100.6730 8.7500 0 5.2250 0 0 0 0 0 0 0 0 0 11.1350 0 -3.1350 0 0 0 4.2632 0 15.6750 8.5264 0 0 0 -60.6461 -6.4887 11.3613 0 -85.6750 0 12.7896 0 10.4500 0 0 0 70.3060 3.5566 9.8324 0 72.7896 0 0 0 -12.7896 0 0 0 0 0 -33.0625 0 0 63.0625 0 0 8.5264 0 0 0 0 0 0 0 0 -6.9375 0 0 36.9375 0 0 0 0 0 0
0 100.7406 9.1667 0 5.4464 0 0 0 0 0 0 0 0 0 11.2678 0 -3.2678 0 0 0 4.1934 0 16.3392 8.3867 0 0 0 -60.7022 -6.7598 11.8471 0 -86.3392 0 12.5801 0 10.8928 0 0 0 70.3325 3.7057 10.2502 0 72.5801 0 0 0 -12.5801 0 0 0 0 0 -33.6160 0 0 63.6160 0 0 8.3867 0 0 0 0 0 0 0 0 -6.3840 0 0 36.3840 0 0 0 0 0 0
0 100.8007 9.5833 0 5.6641 0 0 0 0 0 0 0 0 0 11.3984 0 -3.3984 0 0 0 4.1206 0 16.9922 8.2413 0 0 0 -60.7596 -7.0258 12.3253 0 -86.9922 0 12.3619 0 11.3281 0 0 0 70.3596 3.8522 10.6611 0 72.3619 0 0 0 -12.3619 0 0 0 0 0 -34.1602 0 0 64.1602 0 0 8.2413 0 0 0 0 0 0 0 0 -5.8398 0 0 35.8398 0 0 0 0 0 0
0 100.8532 10.0000 0 5.8779 0 0 0 0 0 0 0 0 0 11.5267 0 -3.5267 0 0 0 4.0451 0 17.6336 8.0902 0 0 0 -60.8181 -7.2867 12.7954 0 -87.6336 0 12.1353 0 11.7557 0 0 0 70.3872 3.9958 11.0648 0 72.1353 0 0 0 -12.1353 0 0 0 0 0 -34.6946 0 0 64.6946 0 0 8.0902 0 0 0 0 0 0 0 0 -5.3054 0 0 35.3054 0 0 0 0 0 0
0 100.8978 10.4167 0 6.0876 0 0 0 0 0 0 0 0 0 11.6526 0 -3.6526 0 0 0 3.9668 0 18.2628 7.9335 0 0 0 -60.8777 -7.5421 13.2573 0 -88.2628 0 11.9003 0 12.1752 0 0 0 70.4153 4.1365 11.4610 0 71.9003 0 0 0 -11.9003 0 0 0 0 0 -35.2190 0 0 65.2190 0 0 7.9335 0 0 0 0 0 0 0 0 -4.7810 0 0 34.7810 0 0 0 0 0 0
0 100.9344 10.8333 0 6.2932 0 0 0 0 0 0 0 0 0 11.7759 0 -3.7759 0 0 0 3.8857 0 18.8796 7.7715 0 0 0 -60.9382 -7.7920 13.7105 0 -88.8796 0 11.6572 0 12.5864 0 0 0 70.4438 4.2742 11.8495 0 71.6572 0 0 0 -11.6572 0 0 0 0 0 -35.7330 0 0 65.7330 0 0 7.7715 0 0 0 0 0 0 0 0 -4.2670 0 0 34.2670 0 0 0 0 0 0
0 100.9631 11.2500 0 6.4945 0 0 0 0 0 0 0 0 0 11.8967 0 -3.8967 0 0 0 3.8020 0 19.4834 7.6041 0 0 0 -60.9993 -8.0362 14.1547 0 -89.4834 0 11.4061 0 12.9890 0 0 0 70.4726 4.4089 12.2299 0 71.4061 0 0 0 -11.4061 0 0 0 0 0 -36.2362 0 0 66.2362 0 0 7.6041 0 0 0 0 0 0 0 0 -3.7638 0 0 33.7638 0 0 0 0 0 0
0 100.9836 11.6667 0 6.6913 0 0 0 0 0 0 0 0 0 12.0148 0 -4.0148 0 0 0 3.7157 0 20.0739 7.4314 0 0 0 -61.0610 -8.2745 14.5896 180.0000 -89.9261 180.0000 11.1472 0 13.3826 0 0 0 70.5016 4.5404 12.6021 0 71.1472 0 0 0 -11.1472 0 0 0 0 0 -36.7283 0 0 66.7283 0 0 7.4314 0 0 0 0 0 0 0 0 -3.2717 0 0 33.2717 0 0 0 0 0 0
0 100.9959 12.0833 0 6.8835 0 0 0 0 0 0 0 0 0 12.1301 0 -4.1301 0 0 0 3.6269 0 20.6506 7.2537 0 0 0 -61.1231 -8.5069 15.0148 180.0000 -89.3494 180.0000 10.8806 0 13.7671 0 0 0 70.5308 4.6686 12.9657 0 70.8806 0 0 0 -10.8806 0 0 0 0 0 -37.2089 0 0 67.2089 0 0 7.2537 0 0 0 0 0 0 0 0 -2.7911 0 0 32.7911 0 0 0 0 0 0
